<?xml version="1.0" encoding="UTF-8"?><svg id="Calque_2" xmlns="http://www.w3.org/2000/svg" viewBox="0 0 132.4308 140.007"><g id="Components"><g id="_96f15518-ae13-47b1-b220-1906e76521eb_1"><path d="M101.7502,1.3316l-48.8765,27.3603c-3.2972,1.8465-3.2817,6.5428-.031,8.4702,44.6552,26.4603,32.8241,60.6319,16.3054,83.6659-3.2077,4.4691,2.3146,9.9639,6.794,6.7734C111.1755,102.5178,158.7149,55.2865,114.7068,3.5894c-3.1922-3.7498-8.6578-4.6636-12.9565-2.2578" style="fill:#dc5c3b; stroke-width:0px;"/><path d="M30.9403,43.8131L2.5845,59.6875c-3.4254,1.9158-3.4308,6.7412-.106,8.8223,32.2665,20.1769,24.438,45.6841,12.1866,63.5337-3.0965,4.5145,2.2519,10.0678,6.8868,7.1545,32.164-20.2218,75.2602-58.3416,20.876-94.862-3.4308-2.3022-7.8824-2.5412-11.4875-.523" style="fill:#dc5c3b; stroke-width:0px;"/></g></g></svg>